<svg width="27" height="26" viewBox="0 0 27 26" fill="none" xmlns="http://www.w3.org/2000/svg">
<path d="M3.28537 0.11884H0.410004V2.9942H3.28537V0.11884Z" fill="#00FF00"/>
<path d="M26.2912 0.11884H23.4158V2.9942H26.2912V0.11884Z" fill="#00FF00"/>
<path d="M3.28537 23.1246H0.410004V26H3.28537V23.1246Z" fill="#00FF00"/>
<path d="M26.2912 23.1246H23.4158V26H26.2912V23.1246Z" fill="#00FF00"/>
<path d="M9.039 5.87246H6.16364V8.74783H9.039V5.87246Z" fill="#00FF00"/>
<path d="M20.5404 5.87246H17.6651V8.74783H20.5404V5.87246Z" fill="#00FF00"/>
<path d="M9.039 17.3739H6.16364V20.2493H9.039V17.3739Z" fill="#00FF00"/>
<path d="M20.5404 17.3739H17.6651V20.2493H20.5404V17.3739Z" fill="#00FF00"/>
<path d="M6.16073 2.9942H3.28537V5.86957H6.16073V2.9942Z" fill="#00FF00"/>
<path d="M23.4158 2.9942H20.5404V5.86957H23.4158V2.9942Z" fill="#00FF00"/>
<path d="M6.16073 20.2493H3.28537V23.1246H6.16073V20.2493Z" fill="#00FF00"/>
<path d="M23.4158 20.2493H20.5404V23.1246H23.4158V20.2493Z" fill="#00FF00"/>
<path d="M11.9143 8.74782H9.03897V11.6232H11.9143V8.74782Z" fill="#00FF00"/>
<path d="M17.6651 8.74782H14.7897V11.6232H17.6651V8.74782Z" fill="#00FF00"/>
<path d="M11.9143 14.4986H9.03897V17.3739H11.9143V14.4986Z" fill="#00FF00"/>
<path d="M17.6651 14.4986H14.7897V17.3739H17.6651V14.4986Z" fill="#00FF00"/>
<path d="M14.7897 11.6232H11.9144V14.4985H14.7897V11.6232Z" fill="#00FF00"/>
</svg>
