<svg width="16" height="15" viewBox="0 0 16 15" fill="none" xmlns="http://www.w3.org/2000/svg">
<path d="M2.06887 0.0685616H0.410004V1.72742H2.06887V0.0685616Z" fill="#00FF00"/>
<path d="M15.3414 0.0685616H13.6826V1.72742H15.3414V0.0685616Z" fill="#00FF00"/>
<path d="M2.06887 13.3411H0.410004V15H2.06887V13.3411Z" fill="#00FF00"/>
<path d="M15.3414 13.3411H13.6826V15H15.3414V13.3411Z" fill="#00FF00"/>
<path d="M5.38826 3.38796H3.7294V5.04682H5.38826V3.38796Z" fill="#00FF00"/>
<path d="M12.0237 3.38796H10.3649V5.04682H12.0237V3.38796Z" fill="#00FF00"/>
<path d="M5.38826 10.0234H3.7294V11.6823H5.38826V10.0234Z" fill="#00FF00"/>
<path d="M12.0237 10.0234H10.3649V11.6823H12.0237V10.0234Z" fill="#00FF00"/>
<path d="M3.72773 1.72742H2.06886V3.38629H3.72773V1.72742Z" fill="#00FF00"/>
<path d="M13.6826 1.72742H12.0237V3.38629H13.6826V1.72742Z" fill="#00FF00"/>
<path d="M3.72773 11.6823H2.06886V13.3411H3.72773V11.6823Z" fill="#00FF00"/>
<path d="M13.6826 11.6823H12.0237V13.3411H13.6826V11.6823Z" fill="#00FF00"/>
<path d="M7.04712 5.04682H5.38826V6.70568H7.04712V5.04682Z" fill="#00FF00"/>
<path d="M10.3649 5.04682H8.70599V6.70568H10.3649V5.04682Z" fill="#00FF00"/>
<path d="M7.04712 8.36455H5.38826V10.0234H7.04712V8.36455Z" fill="#00FF00"/>
<path d="M10.3649 8.36455H8.70599V10.0234H10.3649V8.36455Z" fill="#00FF00"/>
<path d="M8.706 6.70568H7.04713V8.36455H8.706V6.70568Z" fill="#00FF00"/>
</svg>
