<svg width="16" height="15" viewBox="0 0 16 15" fill="none" xmlns="http://www.w3.org/2000/svg">
<path d="M9.04212 0H7.38326V1.65886H9.04212V0Z" fill="#00FF00"/>
<path d="M9.04212 13.2726H7.38326V14.9314H9.04212V13.2726Z" fill="#00FF00"/>
<path d="M12.3598 3.3194H10.701V4.97826H12.3598V3.3194Z" fill="#00FF00"/>
<path d="M12.3598 9.95485H10.701V11.6137H12.3598V9.95485Z" fill="#00FF00"/>
<path d="M10.701 1.66054H9.04211V3.3194H10.701V1.66054Z" fill="#00FF00"/>
<path d="M10.701 11.6137H9.04211V13.2726H10.701V11.6137Z" fill="#00FF00"/>
<path d="M14.0187 4.97826H12.3598V6.63712H14.0187V4.97826Z" fill="#00FF00"/>
<path d="M14.0187 8.29599H12.3598V9.95485H14.0187V8.29599Z" fill="#00FF00"/>
<path d="M15.6776 6.63712H14.0187V8.29599H15.6776V6.63712Z" fill="#00FF00"/>
<path d="M12.3598 6.63712H10.701V8.29599H12.3598V6.63712Z" fill="#00FF00"/>
<path d="M5.72438 6.63712H4.06552V8.29599H5.72438V6.63712Z" fill="#00FF00"/>
<path d="M9.04212 6.63712H7.38326V8.29599H9.04212V6.63712Z" fill="#00FF00"/>
<path d="M2.40499 6.63712H0.746124V8.29599H2.40499V6.63712Z" fill="#00FF00"/>
</svg>
