<svg width="27" height="26" viewBox="0 0 27 26" fill="none" xmlns="http://www.w3.org/2000/svg">
<path d="M14.7723 0H11.897V2.87536H14.7723V0Z" fill="#00FF00"/>
<path d="M14.7723 23.0058H11.897V25.8812H14.7723V23.0058Z" fill="#00FF00"/>
<path d="M20.523 5.75362H17.6477V8.62899H20.523V5.75362Z" fill="#00FF00"/>
<path d="M20.523 17.2551H17.6477V20.1304H20.523V17.2551Z" fill="#00FF00"/>
<path d="M17.6477 2.87826H14.7723V5.75362H17.6477V2.87826Z" fill="#00FF00"/>
<path d="M17.6477 20.1304H14.7723V23.0058H17.6477V20.1304Z" fill="#00FF00"/>
<path d="M23.3984 8.62899H20.523V11.5044H23.3984V8.62899Z" fill="#00FF00"/>
<path d="M23.3984 14.3797H20.523V17.2551H23.3984V14.3797Z" fill="#00FF00"/>
<path d="M26.2738 11.5043H23.3984V14.3797H26.2738V11.5043Z" fill="#00FF00"/>
<path d="M20.523 11.5043H17.6477V14.3797H20.523V11.5043Z" fill="#00FF00"/>
<path d="M9.0216 11.5043H6.14624V14.3797H9.0216V11.5043Z" fill="#00FF00"/>
<path d="M14.7723 11.5043H11.897V14.3797H14.7723V11.5043Z" fill="#00FF00"/>
<path d="M3.26797 11.5043H0.392609V14.3797H3.26797V11.5043Z" fill="#00FF00"/>
</svg>
